<?xml version="1.0" encoding="UTF-8"?>
<!DOCTYPE svg PUBLIC "-//W3C//DTD SVG 1.1//EN" "http://www.w3.org/Graphics/SVG/1.1/DTD/svg11.dtd">
<svg version="1.1" xmlns="http://www.w3.org/2000/svg" xmlns:xlink="http://www.w3.org/1999/xlink" x="0px" y="0px" width="573" height="499" viewBox="0, 0, 573, 499">
<g transform="translate(-96,-28)">
  <g id="Layer 1">
    <g>
      <path d="M550.546,209.711 L322.742,330.301" fill-opacity="0" stroke="#000000" stroke-width="1"/>
      <path d="M551.949,212.362 L557.616,205.968 L549.142,207.059 z" fill="#000000" fill-opacity="1" stroke="#000000" stroke-width="1" stroke-opacity="1"/>
    </g>
    <g>
      <g>
        <path d="M254.949,287.204 L326.949,326.105 L326.949,398.105 L254.949,359.204 z" fill="#FFFFFF"/>
        <path d="M254.949,287.204 L326.949,326.105 L326.949,398.105 L254.949,359.204 z" fill-opacity="0" stroke="#000000" stroke-width="1"/>
      </g>
      <g>
        <path d="M326.949,326.105 L362.949,306.655 L362.949,378.655 L326.949,398.105 z" fill="#FFFFFF"/>
        <path d="M326.949,326.105 L362.949,306.655 L362.949,378.655 L326.949,398.105 z" fill-opacity="0" stroke="#000000" stroke-width="1"/>
      </g>
      <g>
        <path d="M292.051,268.557 L362.949,306.655 L326.949,326.105 L254.949,287.204 z" fill="#FFFFFF"/>
        <path d="M292.051,268.557 L362.949,306.655 L326.949,326.105 L254.949,287.204 z" fill-opacity="0" stroke="#000000" stroke-width="1"/>
      </g>
    </g>
    <g>
      <g>
        <path d="M254.949,204.009 L326.949,242.91 L326.949,314.91 L254.949,276.009 z" fill="#FFFFFF"/>
        <path d="M254.949,204.009 L326.949,242.91 L326.949,314.91 L254.949,276.009 z" fill-opacity="0" stroke="#000000" stroke-width="1"/>
      </g>
      <g>
        <path d="M326.949,242.91 L362.949,223.459 L362.949,295.459 L326.949,314.91 z" fill="#FFFFFF"/>
        <path d="M326.949,242.91 L362.949,223.459 L362.949,295.459 L326.949,314.91 z" fill-opacity="0" stroke="#000000" stroke-width="1"/>
      </g>
      <g>
        <path d="M292.051,185.362 L362.949,223.459 L326.949,242.91 L254.949,204.009 z" fill="#FFFFFF"/>
        <path d="M292.051,185.362 L362.949,223.459 L326.949,242.91 L254.949,204.009 z" fill-opacity="0" stroke="#000000" stroke-width="1"/>
      </g>
    </g>
    <g>
      <g>
        <path d="M254.949,120.428 L326.949,159.33 L326.949,231.33 L254.949,192.428 z" fill="#FFFFFF"/>
        <path d="M254.949,120.428 L326.949,159.33 L326.949,231.33 L254.949,192.428 z" fill-opacity="0" stroke="#000000" stroke-width="1"/>
      </g>
      <g>
        <path d="M326.949,159.33 L362.949,139.879 L362.949,211.879 L326.949,231.33 z" fill="#FFFFFF"/>
        <path d="M326.949,159.33 L362.949,139.879 L362.949,211.879 L326.949,231.33 z" fill-opacity="0" stroke="#000000" stroke-width="1"/>
      </g>
      <g>
        <path d="M292.051,101.781 L362.949,139.879 L326.949,159.33 L254.949,120.428 z" fill="#FFFFFF"/>
        <path d="M292.051,101.781 L362.949,139.879 L326.949,159.33 L254.949,120.428 z" fill-opacity="0" stroke="#000000" stroke-width="1"/>
      </g>
    </g>
    <g>
      <g>
        <path d="M335.926,333.557 L407.926,372.458 L407.926,444.458 L335.926,405.557 z" fill="#FFFFFF"/>
        <path d="M335.926,333.557 L407.926,372.458 L407.926,444.458 L335.926,405.557 z" fill-opacity="0" stroke="#000000" stroke-width="1"/>
      </g>
      <g>
        <path d="M407.926,372.458 L443.926,353.008 L443.926,425.008 L407.926,444.458 z" fill="#FFFFFF"/>
        <path d="M407.926,372.458 L443.926,353.008 L443.926,425.008 L407.926,444.458 z" fill-opacity="0" stroke="#000000" stroke-width="1"/>
      </g>
      <g>
        <path d="M373.027,314.91 L443.926,353.008 L407.926,372.458 L335.926,333.557 z" fill="#FFFFFF"/>
        <path d="M373.027,314.91 L443.926,353.008 L407.926,372.458 L335.926,333.557 z" fill-opacity="0" stroke="#000000" stroke-width="1"/>
      </g>
    </g>
    <g>
      <g>
        <path d="M335.926,249.977 L407.926,288.878 L407.926,360.878 L335.926,321.977 z" fill="#FFFFFF"/>
        <path d="M335.926,249.977 L407.926,288.878 L407.926,360.878 L335.926,321.977 z" fill-opacity="0" stroke="#000000" stroke-width="1"/>
      </g>
      <g>
        <path d="M407.926,288.878 L443.926,269.427 L443.926,341.427 L407.926,360.878 z" fill="#FFFFFF"/>
        <path d="M407.926,288.878 L443.926,269.427 L443.926,341.427 L407.926,360.878 z" fill-opacity="0" stroke="#000000" stroke-width="1"/>
      </g>
      <g>
        <path d="M373.027,231.33 L443.926,269.427 L407.926,288.878 L335.926,249.977 z" fill="#FFFFFF"/>
        <path d="M373.027,231.33 L443.926,269.427 L407.926,288.878 L335.926,249.977 z" fill-opacity="0" stroke="#000000" stroke-width="1"/>
      </g>
    </g>
    <g>
      <g>
        <path d="M335.926,163.302 L407.926,202.203 L407.926,274.203 L335.926,235.302 z" fill="#FFFFFF"/>
        <path d="M335.926,163.302 L407.926,202.203 L407.926,274.203 L335.926,235.302 z" fill-opacity="0" stroke="#000000" stroke-width="1"/>
      </g>
      <g>
        <path d="M407.926,202.203 L443.926,182.752 L443.926,254.752 L407.926,274.203 z" fill="#FFFFFF"/>
        <path d="M407.926,202.203 L443.926,182.752 L443.926,254.752 L407.926,274.203 z" fill-opacity="0" stroke="#000000" stroke-width="1"/>
      </g>
      <g>
        <path d="M373.027,144.655 L443.926,182.752 L407.926,202.203 L335.926,163.302 z" fill="#FFFFFF"/>
        <path d="M373.027,144.655 L443.926,182.752 L407.926,202.203 L335.926,163.302 z" fill-opacity="0" stroke="#000000" stroke-width="1"/>
      </g>
    </g>
    <g>
      <g>
        <path d="M416.621,379.525 L488.621,418.426 L488.621,490.426 L416.621,451.525 z" fill="#FFFFFF"/>
        <path d="M416.621,379.525 L488.621,418.426 L488.621,490.426 L416.621,451.525 z" fill-opacity="0" stroke="#000000" stroke-width="1"/>
      </g>
      <g>
        <path d="M488.621,418.426 L524.621,398.976 L524.621,470.976 L488.621,490.426 z" fill="#FFFFFF"/>
        <path d="M488.621,418.426 L524.621,398.976 L524.621,470.976 L488.621,490.426 z" fill-opacity="0" stroke="#000000" stroke-width="1"/>
      </g>
      <g>
        <path d="M453.723,360.878 L524.621,398.976 L488.621,418.426 L416.621,379.525 z" fill="#FFFFFF"/>
        <path d="M453.723,360.878 L524.621,398.976 L488.621,418.426 L416.621,379.525 z" fill-opacity="0" stroke="#000000" stroke-width="1"/>
      </g>
    </g>
    <g>
      <g>
        <path d="M416.621,292.85 L488.621,331.751 L488.621,403.751 L416.621,364.85 z" fill="#FFFFFF"/>
        <path d="M416.621,292.85 L488.621,331.751 L488.621,403.751 L416.621,364.85 z" fill-opacity="0" stroke="#000000" stroke-width="1"/>
      </g>
      <g>
        <path d="M488.621,331.751 L524.621,312.301 L524.621,384.301 L488.621,403.751 z" fill="#FFFFFF"/>
        <path d="M488.621,331.751 L524.621,312.301 L524.621,384.301 L488.621,403.751 z" fill-opacity="0" stroke="#000000" stroke-width="1"/>
      </g>
      <g>
        <path d="M453.723,274.203 L524.621,312.301 L488.621,331.751 L416.621,292.85 z" fill="#FFFFFF"/>
        <path d="M453.723,274.203 L524.621,312.301 L488.621,331.751 L416.621,292.85 z" fill-opacity="0" stroke="#000000" stroke-width="1"/>
      </g>
    </g>
    <g>
      <g>
        <path d="M416.621,208.478 L488.621,247.379 L488.621,319.379 L416.621,280.478 z" fill="#FFFFFF"/>
        <path d="M416.621,208.478 L488.621,247.379 L488.621,319.379 L416.621,280.478 z" fill-opacity="0" stroke="#000000" stroke-width="1"/>
      </g>
      <g>
        <path d="M488.621,247.379 L524.621,227.928 L524.621,299.928 L488.621,319.379 z" fill="#FFFFFF"/>
        <path d="M488.621,247.379 L524.621,227.928 L524.621,299.928 L488.621,319.379 z" fill-opacity="0" stroke="#000000" stroke-width="1"/>
      </g>
      <g>
        <path d="M453.723,189.831 L524.621,227.928 L488.621,247.379 L416.621,208.478 z" fill="#FFFFFF"/>
        <path d="M453.723,189.831 L524.621,227.928 L488.621,247.379 L416.621,208.478 z" fill-opacity="0" stroke="#000000" stroke-width="1"/>
      </g>
    </g>
    <g>
      <g>
        <path d="M208.758,312.043 L280.758,350.945 L280.758,422.945 L208.758,384.043 z" fill="#FFFFFF"/>
        <path d="M208.758,312.043 L280.758,350.945 L280.758,422.945 L208.758,384.043 z" fill-opacity="0" stroke="#000000" stroke-width="1"/>
      </g>
      <g>
        <path d="M280.758,350.945 L316.758,331.494 L316.758,403.494 L280.758,422.945 z" fill="#FFFFFF"/>
        <path d="M280.758,350.945 L316.758,331.494 L316.758,403.494 L280.758,422.945 z" fill-opacity="0" stroke="#000000" stroke-width="1"/>
      </g>
      <g>
        <path d="M245.859,293.396 L316.758,331.494 L280.758,350.945 L208.758,312.043 z" fill="#FFFFFF"/>
        <path d="M245.859,293.396 L316.758,331.494 L280.758,350.945 L208.758,312.043 z" fill-opacity="0" stroke="#000000" stroke-width="1"/>
      </g>
    </g>
    <path d="M322.742,330.301" fill-opacity="0" stroke="#000000" stroke-width="1"/>
    <g>
      <path d="M129.401,198.81 L370.43,330.301" fill-opacity="0" stroke="#000000" stroke-width="1"/>
      <path d="M130.838,196.177 L122.378,194.979 L127.964,201.444 z" fill="#000000" fill-opacity="1" stroke="#000000" stroke-width="1" stroke-opacity="1"/>
    </g>
    <g>
      <path d="M335.926,311.784 L576.955,443.275" fill-opacity="0" stroke="#000000" stroke-width="1"/>
      <path d="M575.518,445.908 L583.978,447.106 L578.391,440.641 z" fill="#000000" fill-opacity="1" stroke="#000000" stroke-width="1" stroke-opacity="1"/>
    </g>
    <g>
      <g>
        <path d="M208.758,228.848 L280.758,267.749 L280.758,339.749 L208.758,300.848 z" fill="#FFFFFF"/>
        <path d="M208.758,228.848 L280.758,267.749 L280.758,339.749 L208.758,300.848 z" fill-opacity="0" stroke="#000000" stroke-width="1"/>
      </g>
      <g>
        <path d="M280.758,267.749 L316.758,248.299 L316.758,320.299 L280.758,339.749 z" fill="#FFFFFF"/>
        <path d="M280.758,267.749 L316.758,248.299 L316.758,320.299 L280.758,339.749 z" fill-opacity="0" stroke="#000000" stroke-width="1"/>
      </g>
      <g>
        <path d="M245.859,210.201 L316.758,248.299 L280.758,267.749 L208.758,228.848 z" fill="#FFFFFF"/>
        <path d="M245.859,210.201 L316.758,248.299 L280.758,267.749 L208.758,228.848 z" fill-opacity="0" stroke="#000000" stroke-width="1"/>
      </g>
    </g>
    <g>
      <g>
        <path d="M208.758,145.268 L280.758,184.169 L280.758,256.169 L208.758,217.268 z" fill="#FFFFFF"/>
        <path d="M208.758,145.268 L280.758,184.169 L280.758,256.169 L208.758,217.268 z" fill-opacity="0" stroke="#000000" stroke-width="1"/>
      </g>
      <g>
        <path d="M280.758,184.169 L316.758,164.718 L316.758,236.718 L280.758,256.169 z" fill="#FFFFFF"/>
        <path d="M280.758,184.169 L316.758,164.718 L316.758,236.718 L280.758,256.169 z" fill-opacity="0" stroke="#000000" stroke-width="1"/>
      </g>
      <g>
        <path d="M245.859,126.621 L316.758,164.718 L280.758,184.169 L208.758,145.268 z" fill="#FFFFFF"/>
        <path d="M245.859,126.621 L316.758,164.718 L280.758,184.169 L208.758,145.268 z" fill-opacity="0" stroke="#000000" stroke-width="1"/>
      </g>
    </g>
    <g>
      <path d="M357.617,263.124 L357.617,52.164" fill-opacity="0" stroke="#000000" stroke-width="1"/>
      <path d="M360.617,52.164 L357.617,44.164 L354.617,52.164 z" fill="#000000" fill-opacity="1" stroke="#000000" stroke-width="1" stroke-opacity="1"/>
    </g>
    <g>
      <path d="M357.617,517.5 L357.617,256.169" fill-opacity="0" stroke="#000000" stroke-width="1"/>
      <path d="M354.617,517.5 L357.617,525.5 L360.617,517.5 z" fill="#000000" fill-opacity="1" stroke="#000000" stroke-width="1" stroke-opacity="1"/>
    </g>
    <g>
      <g>
        <path d="M289.734,358.396 L361.734,397.298 L361.734,469.298 L289.734,430.396 z" fill="#FFFFFF"/>
        <path d="M289.734,358.396 L361.734,397.298 L361.734,469.298 L289.734,430.396 z" fill-opacity="0" stroke="#000000" stroke-width="1"/>
      </g>
      <g>
        <path d="M361.734,397.298 L397.734,377.847 L397.734,449.847 L361.734,469.298 z" fill="#FFFFFF"/>
        <path d="M361.734,397.298 L397.734,377.847 L397.734,449.847 L361.734,469.298 z" fill-opacity="0" stroke="#000000" stroke-width="1"/>
      </g>
      <g>
        <path d="M326.836,339.749 L397.734,377.847 L361.734,397.298 L289.734,358.396 z" fill="#FFFFFF"/>
        <path d="M326.836,339.749 L397.734,377.847 L361.734,397.298 L289.734,358.396 z" fill-opacity="0" stroke="#000000" stroke-width="1"/>
      </g>
    </g>
    <g>
      <g>
        <path d="M289.734,274.816 L361.734,313.717 L361.734,385.717 L289.734,346.816 z" fill="#FFFFFF"/>
        <path d="M289.734,274.816 L361.734,313.717 L361.734,385.717 L289.734,346.816 z" fill-opacity="0" stroke="#000000" stroke-width="1"/>
      </g>
      <g>
        <path d="M361.734,313.717 L397.734,294.267 L397.734,366.267 L361.734,385.717 z" fill="#FFFFFF"/>
        <path d="M361.734,313.717 L397.734,294.267 L397.734,366.267 L361.734,385.717 z" fill-opacity="0" stroke="#000000" stroke-width="1"/>
      </g>
      <g>
        <path d="M326.836,256.169 L397.734,294.267 L361.734,313.717 L289.734,274.816 z" fill="#FFFFFF"/>
        <path d="M326.836,256.169 L397.734,294.267 L361.734,313.717 L289.734,274.816 z" fill-opacity="0" stroke="#000000" stroke-width="1"/>
      </g>
    </g>
    <g>
      <g>
        <path d="M289.734,188.141 L361.734,227.042 L361.734,299.042 L289.734,260.141 z" fill="#FFFFFF"/>
        <path d="M289.734,188.141 L361.734,227.042 L361.734,299.042 L289.734,260.141 z" fill-opacity="0" stroke="#000000" stroke-width="1"/>
      </g>
      <g>
        <path d="M361.734,227.042 L397.734,207.592 L397.734,279.592 L361.734,299.042 z" fill="#FFFFFF"/>
        <path d="M361.734,227.042 L397.734,207.592 L397.734,279.592 L361.734,299.042 z" fill-opacity="0" stroke="#000000" stroke-width="1"/>
      </g>
      <g>
        <path d="M326.836,169.494 L397.734,207.592 L361.734,227.042 L289.734,188.141 z" fill="#FFFFFF"/>
        <path d="M326.836,169.494 L397.734,207.592 L361.734,227.042 L289.734,188.141 z" fill-opacity="0" stroke="#000000" stroke-width="1"/>
      </g>
    </g>
    <g>
      <g>
        <path d="M370.43,404.364 L442.43,443.266 L442.43,515.266 L370.43,476.364 z" fill="#FFFFFF"/>
        <path d="M370.43,404.364 L442.43,443.266 L442.43,515.266 L370.43,476.364 z" fill-opacity="0" stroke="#000000" stroke-width="1"/>
      </g>
      <g>
        <path d="M442.43,443.266 L478.43,423.815 L478.43,495.815 L442.43,515.266 z" fill="#FFFFFF"/>
        <path d="M442.43,443.266 L478.43,423.815 L478.43,495.815 L442.43,515.266 z" fill-opacity="0" stroke="#000000" stroke-width="1"/>
      </g>
      <g>
        <path d="M407.531,385.717 L478.43,423.815 L442.43,443.266 L370.43,404.364 z" fill="#FFFFFF"/>
        <path d="M407.531,385.717 L478.43,423.815 L442.43,443.266 L370.43,404.364 z" fill-opacity="0" stroke="#000000" stroke-width="1"/>
      </g>
    </g>
    <g>
      <g>
        <path d="M370.43,317.689 L442.43,356.591 L442.43,428.591 L370.43,389.689 z" fill="#FFFFFF"/>
        <path d="M370.43,317.689 L442.43,356.591 L442.43,428.591 L370.43,389.689 z" fill-opacity="0" stroke="#000000" stroke-width="1"/>
      </g>
      <g>
        <path d="M442.43,356.591 L478.43,337.14 L478.43,409.14 L442.43,428.591 z" fill="#FFFFFF"/>
        <path d="M442.43,356.591 L478.43,337.14 L478.43,409.14 L442.43,428.591 z" fill-opacity="0" stroke="#000000" stroke-width="1"/>
      </g>
      <g>
        <path d="M407.531,299.042 L478.43,337.14 L442.43,356.591 L370.43,317.689 z" fill="#FFFFFF"/>
        <path d="M407.531,299.042 L478.43,337.14 L442.43,356.591 L370.43,317.689 z" fill-opacity="0" stroke="#000000" stroke-width="1"/>
      </g>
    </g>
    <g>
      <g>
        <path d="M370.43,233.317 L442.43,272.218 L442.43,344.218 L370.43,305.317 z" fill="#FFFFFF"/>
        <path d="M370.43,233.317 L442.43,272.218 L442.43,344.218 L370.43,305.317 z" fill-opacity="0" stroke="#000000" stroke-width="1"/>
      </g>
      <g>
        <path d="M442.43,272.218 L478.43,252.768 L478.43,324.768 L442.43,344.218 z" fill="#FFFFFF"/>
        <path d="M442.43,272.218 L478.43,252.768 L478.43,324.768 L442.43,344.218 z" fill-opacity="0" stroke="#000000" stroke-width="1"/>
      </g>
      <g>
        <path d="M407.531,214.67 L478.43,252.768 L442.43,272.218 L370.43,233.317 z" fill="#FFFFFF"/>
        <path d="M407.531,214.67 L478.43,252.768 L442.43,272.218 L370.43,233.317 z" fill-opacity="0" stroke="#000000" stroke-width="1"/>
      </g>
    </g>
    <g>
      <path d="M322.742,330.301 L136.431,430.246" fill-opacity="0" stroke="#000000" stroke-width="1"/>
      <path d="M135.013,427.602 L129.381,434.027 L137.849,432.889 z" fill="#000000" fill-opacity="1" stroke="#000000" stroke-width="1" stroke-opacity="1"/>
    </g>
    <text transform="matrix(1, 0, 0, 1, 357.699, 41.758)">
      <tspan x="-34.104" y="-2.016" font-family="HelveticaNeue-Bold" font-size="12" fill="#000000">Facet A (lat)</tspan>
    </text>
    <text transform="matrix(1, 0, 0, 1, 136.207, 190.895)">
      <tspan x="-39.552" y="-2.016" font-family="HelveticaNeue-Bold" font-size="12" fill="#000000">Facet B (long)</tspan>
    </text>
    <text transform="matrix(1, 0, 0, 1, 136.207, 449.991)">
      <tspan x="-39.876" y="-2.016" font-family="HelveticaNeue-Bold" font-size="12" fill="#000000">Facet C (time)</tspan>
    </text>
    <g>
      <g>
        <text transform="matrix(1, 0, 0, 1, 486.842, 132.148)">
          <tspan x="-4.446" y="2.738" font-family="HelveticaNeue-Bold" font-size="12" fill="#000000">U</tspan>
        </text>
        <text transform="matrix(1, 0, 0, 1, 501.9, 139.372)">
          <tspan x="-8.33" y="-0.617" font-family="HelveticaNeue-Bold" font-size="10" fill="#000000">i,j,k</tspan>
        </text>
      </g>
      <text transform="matrix(1, 0, 0, 1, 489.145, 127.699)">
        <tspan x="-68.23" y="-7.008" font-family="HelveticaNeue-Bold" font-size="10" fill="#000000">Data Set Partition with name</tspan>
      </text>
    </g>
    <g>
      <path d="M443.926,134.496 L359.612,199.894" fill-opacity="0" stroke="#000000" stroke-width="1"/>
      <path d="M357.773,197.524 L353.29,204.797 L361.45,202.265 z" fill="#000000" fill-opacity="1" stroke="#000000" stroke-width="1" stroke-opacity="1"/>
    </g>
    <g>
      <path d="M464.566,134.496 L432.189,237.911" fill-opacity="0" stroke="#000000" stroke-width="1"/>
      <path d="M429.326,237.015 L429.799,245.546 L435.052,238.807 z" fill="#000000" fill-opacity="1" stroke="#000000" stroke-width="1" stroke-opacity="1"/>
    </g>
    <g>
      <path d="M487.26,150.488 L479.656,205.754" fill-opacity="0" stroke="#000000" stroke-width="1"/>
      <path d="M476.684,205.345 L478.566,213.679 L482.628,206.163 z" fill="#000000" fill-opacity="1" stroke="#000000" stroke-width="1" stroke-opacity="1"/>
    </g>
    <text transform="matrix(1, 0, 0, 1, 609.611, 352.159)">
      <tspan x="-44.004" y="-28.875" font-family="HelveticaNeue-Bold" font-size="12" fill="#000000">Annotated data </tspan>
      <tspan x="-58.098" y="-13.875" font-family="HelveticaNeue-Bold" font-size="12" fill="#000000">contained within the </tspan>
      <tspan x="-36.324" y="1.125" font-family="HelveticaNeue-Bold" font-size="12" fill="#000000">partition and </tspan>
      <tspan x="-43.872" y="16.125" font-family="HelveticaNeue-Bold" font-size="12" fill="#000000">accessible as a </tspan>
      <tspan x="-26.898" y="31.125" font-family="HelveticaNeue-Bold" font-size="12" fill="#000000">resource.</tspan>
    </text>
    <g>
      <path d="M550.305,351.738 L519.498,352.328" fill-opacity="0" stroke="#000000" stroke-width="1"/>
      <path d="M519.441,349.328 L511.5,352.481 L519.556,355.327 z" fill="#000000" fill-opacity="1" stroke="#000000" stroke-width="1" stroke-opacity="1"/>
    </g>
  </g>
</g>
  <defs/>
</svg>
